<?xml version="1.0" standalone="no"?>
<!DOCTYPE svg PUBLIC "-//W3C//DTD SVG 20010904//EN"
 "http://www.w3.org/TR/2001/REC-SVG-20010904/DTD/svg10.dtd">
<svg version="1.0" xmlns="http://www.w3.org/2000/svg"
 width="1023.000000pt" height="1023.000000pt" viewBox="0 0 1023.000000 1023.000000"
 preserveAspectRatio="xMidYMid meet">
<metadata>
Created by potrace 1.14, written by Peter Selinger 2001-2017
</metadata>
<g transform="translate(0.000000,1023.000000) scale(0.100000,-0.100000)"
fill="#000000" stroke="none">
<path d="M8287 10113 c-1 0 -32 -4 -70 -8 -58 -5 -102 -13 -245 -41 -369 -73
-586 -173 -767 -351 -82 -81 -111 -117 -187 -233 -113 -174 -167 -293 -244
-545 -15 -49 -29 -96 -30 -103 -5 -30 -14 -42 -32 -42 -10 0 -104 15 -208 34
-235 43 -276 48 -499 71 -27 3 -77 7 -110 10 -33 2 -80 7 -105 9 -158 16 -282
21 -480 21 -227 -1 -370 -8 -570 -31 -30 -3 -71 -8 -90 -10 -32 -3 -70 -8
-160 -20 -50 -8 -195 -32 -222 -39 -13 -2 -34 -7 -48 -9 -14 -3 -61 -12 -105
-21 -44 -9 -91 -18 -105 -21 -14 -3 -65 -14 -113 -25 -48 -10 -105 -22 -125
-25 -20 -3 -40 -8 -43 -10 -4 -2 -62 -15 -130 -29 -351 -74 -451 -105 -852
-265 -251 -101 -258 -103 -277 -85 -11 10 -27 44 -36 74 -93 336 -265 603
-507 785 -144 109 -328 200 -442 220 -16 3 -52 10 -80 15 -51 10 -266 8 -320
-4 -389 -80 -598 -245 -799 -627 -30 -57 -71 -143 -91 -193 -20 -49 -43 -103
-50 -120 -21 -47 -83 -237 -89 -270 -19 -105 -26 -148 -31 -210 -3 -38 -8 -97
-11 -130 -9 -110 -11 -522 -3 -576 5 -30 11 -69 14 -86 33 -213 142 -427 291
-577 98 -98 215 -169 396 -242 60 -24 115 -44 120 -44 10 0 90 -39 158 -77 63
-35 186 -81 266 -99 44 -9 82 -21 85 -26 6 -10 4 -93 -6 -238 -17 -262 -28
-339 -70 -530 -14 -63 -28 -126 -30 -140 -4 -22 -13 -67 -28 -145 -3 -11 -7
-36 -11 -55 -3 -19 -8 -46 -11 -60 -12 -62 -27 -141 -40 -210 -8 -41 -26 -136
-40 -210 -15 -74 -28 -146 -31 -160 -2 -14 -11 -56 -20 -95 -14 -66 -17 -81
-29 -145 -7 -35 -12 -61 -19 -90 -3 -14 -8 -36 -10 -50 -3 -14 -14 -70 -25
-125 -26 -129 -35 -188 -46 -290 -3 -27 -8 -70 -10 -95 -15 -136 -20 -310 -10
-385 3 -22 7 -60 10 -85 13 -105 57 -344 90 -484 37 -157 110 -332 193 -461
62 -97 135 -186 336 -409 39 -44 93 -105 121 -135 125 -140 417 -421 489 -470
12 -8 23 -18 26 -22 11 -14 230 -168 300 -211 219 -131 436 -225 855 -368 83
-28 157 -54 165 -57 8 -3 20 -7 25 -9 6 -1 84 -30 175 -64 228 -84 389 -130
535 -154 17 -2 50 -8 75 -11 25 -4 53 -9 63 -11 10 -2 46 -6 80 -9 34 -4 78
-8 98 -11 19 -2 69 -6 110 -9 41 -3 84 -7 96 -9 11 -3 79 -8 149 -13 193 -12
431 -8 719 12 33 2 98 7 145 10 47 3 105 8 130 11 25 2 77 6 115 9 82 5 150
12 260 26 121 15 146 19 200 29 28 5 61 12 75 14 97 18 156 30 230 48 47 11
94 21 105 24 105 20 640 183 670 204 6 4 33 15 60 24 145 52 354 177 610 364
144 105 634 480 650 497 6 6 33 29 60 50 101 80 251 224 307 295 59 75 150
240 203 365 20 48 85 224 90 245 2 8 10 35 18 60 9 25 41 131 72 235 31 105
78 258 105 340 85 263 114 386 134 565 4 30 9 71 11 90 3 19 7 67 11 105 3 39
7 81 9 95 2 14 7 66 10 115 4 50 8 106 10 125 28 284 25 466 -10 650 -21 115
-23 121 -76 345 -28 116 -52 217 -54 225 -2 8 -22 87 -44 175 -23 88 -43 169
-46 180 -29 134 -102 346 -180 520 -70 155 -110 262 -120 311 -3 16 -7 42 -10
58 -6 29 22 72 123 191 18 22 41 49 51 60 88 105 219 285 307 425 109 172 189
358 244 565 12 44 29 105 37 135 8 30 17 66 19 80 3 14 9 41 14 60 5 19 11 46
14 60 3 14 10 50 16 80 6 30 13 78 16 105 4 28 9 70 13 95 4 25 8 92 10 150 5
228 -66 403 -281 691 -138 185 -230 290 -319 369 -204 180 -557 372 -799 435
-71 19 -75 19 -140 30 -25 4 -53 9 -63 11 -50 9 -334 24 -340 17z"/>
</g>
</svg>
